<svg id="Layer_1" data-name="Layer 1" xmlns="http://www.w3.org/2000/svg" viewBox="0 0 48 48"><defs><style>.cls-1{fill:#8c1619;stroke:#534741;stroke-miterlimit:10;stroke-width:7px;}.cls-2{fill:#fbb03b;}</style></defs><title>icon</title><rect class="cls-1" x="1" y="1" width="46" height="46"/><path class="cls-2" d="M12.57,22.52l-1.11.43q-.43.22-.37.59,0,1.23,2,1.82L13,15.74a1.84,1.84,0,0,0-1.2-1.54H17.6a1.62,1.62,0,0,0-.71,1.29L17,25.42a16.33,16.33,0,0,0,3.05-1.51V15.24a2.75,2.75,0,0,0-.12-1,2.6,2.6,0,0,0-1.24-.92l5.95-.09a3.17,3.17,0,0,0-1.23,1.7l.12,6.94a5.05,5.05,0,0,1,2-.71,4.87,4.87,0,0,1,1.63.37,2.49,2.49,0,0,0-1.06,2.13,1.71,1.71,0,0,0-1.34-.86,2.64,2.64,0,0,0-1.24.43l.22,11.13q0,.8,1.39,1.36l-6.5-.09a2.22,2.22,0,0,0,1.42-1.48V25.42A13.26,13.26,0,0,1,17,26.71v6.13q.15.92,1.45,1.45l-7.06-.09q1.7-.52,1.7-1.85V26.4q-3-.71-2.93-3.33A4.05,4.05,0,0,1,12,22.49Z"/><path class="cls-2" d="M37.57,15.21l-.68,7L33.56,24,31.19,21.5l0,6.6-1.17-1.79-.12-.25.18,8-1-1.54L28.45,40,26.23,27.23l1.11.74-1.17-7.65,1.54.68L26.41,10.19h4.75v1.66l3-1.23Zm-3.64,6-.37-9-2.4,1,0,7.73,2.13,1.11Z"/></svg>